<svg width="100" height="100" viewBox="0 0 100 100" fill="none" xmlns="http://www.w3.org/2000/svg">
<rect x="1" y="1" width="98" height="98" rx="1" fill="white" stroke="#A6A6A6" stroke-width="2"/>
<path d="M16 66.78H18.0076V67.704H18.0355C18.1006 67.5733 18.1935 67.4427 18.3144 67.312C18.4352 67.1813 18.5793 67.0647 18.7466 66.962C18.9139 66.8593 19.1044 66.7753 19.3182 66.71C19.532 66.6447 19.7643 66.612 20.0153 66.612C20.4893 66.612 20.9076 66.71 21.27 66.906C21.6418 67.102 21.9207 67.41 22.1066 67.83C22.3482 67.3913 22.641 67.0787 22.9849 66.892C23.3288 66.7053 23.7517 66.612 24.2536 66.612C24.7091 66.612 25.0901 66.6913 25.3969 66.85C25.7129 66.9993 25.9591 67.2093 26.1358 67.48C26.3216 67.7413 26.4518 68.054 26.5262 68.418C26.6098 68.7727 26.6516 69.1553 26.6516 69.566V73.584H24.5603V69.622C24.5603 69.3047 24.4906 69.034 24.3512 68.81C24.2211 68.5767 23.9841 68.46 23.6402 68.46C23.3985 68.46 23.194 68.502 23.0267 68.586C22.8687 68.6607 22.7386 68.768 22.6364 68.908C22.5434 69.048 22.4737 69.2113 22.4272 69.398C22.3901 69.5847 22.3715 69.7807 22.3715 69.986V73.584H20.2802V69.986C20.2802 69.8647 20.2755 69.7153 20.2662 69.538C20.2569 69.3607 20.2244 69.1927 20.1686 69.034C20.1129 68.8753 20.0199 68.74 19.8898 68.628C19.769 68.516 19.5877 68.46 19.3461 68.46C19.0765 68.46 18.8581 68.5113 18.6908 68.614C18.5235 68.7073 18.3934 68.838 18.3004 69.006C18.2168 69.1647 18.161 69.3467 18.1331 69.552C18.1052 69.7573 18.0913 69.972 18.0913 70.196V73.584H16V66.78ZM34.6559 73.584H32.6483V72.66H32.6204C32.5461 72.7907 32.4485 72.9213 32.3276 73.052C32.2161 73.1827 32.0767 73.2993 31.9093 73.402C31.742 73.5047 31.5515 73.5887 31.3377 73.654C31.124 73.7193 30.8916 73.752 30.6406 73.752C30.1108 73.752 29.6786 73.6727 29.344 73.514C29.0188 73.346 28.7632 73.1173 28.5772 72.828C28.4007 72.5387 28.2799 72.198 28.2147 71.806C28.159 71.414 28.1311 70.9893 28.1311 70.532V66.78H30.2224V70.112C30.2224 70.308 30.2271 70.5133 30.2363 70.728C30.2549 70.9333 30.2968 71.1247 30.3618 71.302C30.4362 71.4793 30.543 71.624 30.6825 71.736C30.8312 71.848 31.0404 71.904 31.3098 71.904C31.5794 71.904 31.7978 71.8573 31.9651 71.764C32.1324 71.6613 32.2579 71.5307 32.3415 71.372C32.4346 71.204 32.4949 71.0173 32.5228 70.812C32.5507 70.6067 32.5646 70.392 32.5646 70.168V66.78H34.6559V73.584ZM39.9709 68.782C39.6641 68.3993 39.2598 68.208 38.7579 68.208C38.5814 68.208 38.4094 68.25 38.2421 68.334C38.0748 68.418 37.9911 68.5627 37.9911 68.768C37.9911 68.936 38.0748 69.062 38.2421 69.146C38.4186 69.2207 38.6371 69.2907 38.8973 69.356C39.1669 69.412 39.4503 69.4773 39.7478 69.552C40.0545 69.6173 40.338 69.7247 40.5983 69.874C40.8678 70.0233 41.0862 70.2287 41.2535 70.49C41.4301 70.742 41.5184 71.0827 41.5184 71.512C41.5184 71.9507 41.4208 72.3147 41.2256 72.604C41.0397 72.884 40.7981 73.1127 40.5007 73.29C40.2032 73.458 39.8686 73.5747 39.4968 73.64C39.1251 73.7147 38.7579 73.752 38.3954 73.752C37.9214 73.752 37.4427 73.6867 36.9594 73.556C36.4761 73.416 36.0671 73.1733 35.7325 72.828L37.0012 71.414C37.1964 71.6567 37.4102 71.8433 37.6426 71.974C37.8843 72.0953 38.1631 72.156 38.4791 72.156C38.7208 72.156 38.9392 72.1233 39.1344 72.058C39.3295 71.9833 39.4271 71.8527 39.4271 71.666C39.4271 71.4887 39.3388 71.358 39.1622 71.274C38.9949 71.1807 38.7765 71.106 38.507 71.05C38.2467 70.9847 37.9632 70.9193 37.6565 70.854C37.359 70.7793 37.0756 70.672 36.806 70.532C36.5458 70.392 36.3273 70.196 36.1508 69.944C35.9835 69.6827 35.8998 69.3373 35.8998 68.908C35.8998 68.5067 35.9788 68.1613 36.1368 67.872C36.3041 67.5827 36.5179 67.3447 36.7782 67.158C37.0477 66.9713 37.3545 66.836 37.6983 66.752C38.0422 66.6587 38.3907 66.612 38.744 66.612C39.1901 66.612 39.6409 66.6773 40.0963 66.808C40.5517 66.9387 40.9375 67.172 41.2535 67.508L39.9709 68.782ZM49.0037 72.408C48.6691 72.8373 48.2462 73.1687 47.735 73.402C47.2238 73.6353 46.694 73.752 46.1456 73.752C45.6251 73.752 45.1325 73.668 44.6678 73.5C44.2123 73.332 43.8127 73.094 43.4688 72.786C43.1342 72.4687 42.8693 72.0907 42.6741 71.652C42.4789 71.2133 42.3813 70.7233 42.3813 70.182C42.3813 69.6407 42.4789 69.1507 42.6741 68.712C42.8693 68.2733 43.1342 67.9 43.4688 67.592C43.8127 67.2747 44.2123 67.032 44.6678 66.864C45.1325 66.696 45.6251 66.612 46.1456 66.612C46.6289 66.612 47.0658 66.696 47.4562 66.864C47.8558 67.032 48.1904 67.2747 48.46 67.592C48.7388 67.9 48.9526 68.2733 49.1013 68.712C49.25 69.1507 49.3244 69.6407 49.3244 70.182V70.84H44.4726C44.5563 71.2413 44.7375 71.5633 45.0163 71.806C45.2952 72.0393 45.6391 72.156 46.0481 72.156C46.3919 72.156 46.68 72.0813 46.9124 71.932C47.154 71.7733 47.3632 71.5727 47.5398 71.33L49.0037 72.408ZM47.2331 69.412C47.2424 69.0573 47.1262 68.754 46.8846 68.502C46.6429 68.25 46.3315 68.124 45.9505 68.124C45.718 68.124 45.5136 68.1613 45.337 68.236C45.1603 68.3107 45.007 68.4087 44.8769 68.53C44.756 68.642 44.6584 68.7773 44.5841 68.936C44.519 69.0853 44.4819 69.244 44.4726 69.412H47.2331ZM54.4301 68.782C54.1234 68.3993 53.7191 68.208 53.2172 68.208C53.0406 68.208 52.8686 68.25 52.7013 68.334C52.534 68.418 52.4504 68.5627 52.4504 68.768C52.4504 68.936 52.534 69.062 52.7013 69.146C52.8779 69.2207 53.0964 69.2907 53.3566 69.356C53.6262 69.412 53.9096 69.4773 54.2071 69.552C54.5138 69.6173 54.7973 69.7247 55.0575 69.874C55.3271 70.0233 55.5455 70.2287 55.7128 70.49C55.8894 70.742 55.9777 71.0827 55.9777 71.512C55.9777 71.9507 55.8801 72.3147 55.6849 72.604C55.499 72.884 55.2574 73.1127 54.9599 73.29C54.6625 73.458 54.3279 73.5747 53.9561 73.64C53.5844 73.7147 53.2172 73.752 52.8547 73.752C52.3807 73.752 51.902 73.6867 51.4187 73.556C50.9354 73.416 50.5264 73.1733 50.1918 72.828L51.4605 71.414C51.6557 71.6567 51.8695 71.8433 52.1018 71.974C52.3435 72.0953 52.6224 72.156 52.9383 72.156C53.18 72.156 53.3984 72.1233 53.5936 72.058C53.7888 71.9833 53.8864 71.8527 53.8864 71.666C53.8864 71.4887 53.7981 71.358 53.6215 71.274C53.4542 71.1807 53.2358 71.106 52.9662 71.05C52.706 70.9847 52.4225 70.9193 52.1158 70.854C51.8183 70.7793 51.5349 70.672 51.2653 70.532C51.0051 70.392 50.7866 70.196 50.61 69.944C50.4427 69.6827 50.3591 69.3373 50.3591 68.908C50.3591 68.5067 50.4381 68.1613 50.5961 67.872C50.7634 67.5827 50.9772 67.3447 51.2374 67.158C51.507 66.9713 51.8137 66.836 52.1576 66.752C52.5015 66.6587 52.85 66.612 53.2032 66.612C53.6494 66.612 54.1002 66.6773 54.5556 66.808C55.011 66.9387 55.3968 67.172 55.7128 67.508L54.4301 68.782ZM59.141 63V67.704H59.1689C59.2154 67.5733 59.2944 67.4427 59.4059 67.312C59.5174 67.1813 59.6522 67.0647 59.8102 66.962C59.9683 66.8593 60.1541 66.7753 60.3679 66.71C60.5817 66.6447 60.814 66.612 61.065 66.612C61.5948 66.612 62.0223 66.696 62.3477 66.864C62.673 67.0227 62.924 67.2467 63.1005 67.536C63.2864 67.8253 63.4119 68.166 63.4769 68.558C63.542 68.95 63.5745 69.3747 63.5745 69.832V73.584H61.4833V70.252C61.4833 70.056 61.474 69.8553 61.4554 69.65C61.4461 69.4353 61.4043 69.2393 61.3299 69.062C61.2649 68.8847 61.1579 68.74 61.0092 68.628C60.8698 68.516 60.6654 68.46 60.3958 68.46C60.1262 68.46 59.9078 68.5113 59.7405 68.614C59.5732 68.7073 59.4431 68.838 59.3501 69.006C59.2665 69.1647 59.2107 69.3467 59.1828 69.552C59.155 69.7573 59.141 69.972 59.141 70.196V73.584H57.0497V63H59.141ZM69.3077 72.73H69.2798C69.0474 73.094 68.736 73.3553 68.3457 73.514C67.9647 73.6727 67.5603 73.752 67.1327 73.752C66.8167 73.752 66.51 73.7053 66.2126 73.612C65.9245 73.528 65.6688 73.3973 65.4457 73.22C65.2227 73.0427 65.0461 72.8233 64.916 72.562C64.7859 72.3007 64.7208 71.9973 64.7208 71.652C64.7208 71.26 64.7905 70.9287 64.9299 70.658C65.0787 70.3873 65.2739 70.1633 65.5155 69.986C65.7664 69.8087 66.0499 69.6733 66.3659 69.58C66.682 69.4773 67.0072 69.4027 67.3418 69.356C67.6858 69.3093 68.025 69.2813 68.3596 69.272C68.7036 69.2627 69.0196 69.258 69.3077 69.258C69.3077 68.8847 69.1729 68.5907 68.9033 68.376C68.6431 68.152 68.3317 68.04 67.9692 68.04C67.6254 68.04 67.3094 68.1147 67.0212 68.264C66.7423 68.404 66.4914 68.6 66.2683 68.852L65.153 67.704C65.5433 67.34 65.9988 67.0693 66.5193 66.892C67.0398 66.7053 67.5789 66.612 68.1365 66.612C68.75 66.612 69.2519 66.6913 69.6423 66.85C70.042 66.9993 70.358 67.2233 70.5903 67.522C70.832 67.8207 70.9993 68.1893 71.0922 68.628C71.1852 69.0573 71.2316 69.5567 71.2316 70.126V73.584H69.3077V72.73ZM68.7918 70.602C68.6339 70.602 68.434 70.6113 68.1923 70.63C67.96 70.6393 67.7322 70.6767 67.5092 70.742C67.2954 70.8073 67.1095 70.9053 66.9515 71.036C66.8028 71.1667 66.7284 71.3487 66.7284 71.582C66.7284 71.834 66.8354 72.0207 67.0491 72.142C67.2629 72.2633 67.486 72.324 67.7183 72.324C67.9228 72.324 68.118 72.296 68.3038 72.24C68.499 72.184 68.671 72.1047 68.8197 72.002C68.9685 71.8993 69.0846 71.7687 69.1682 71.61C69.2613 71.4513 69.3077 71.2647 69.3077 71.05V70.602H68.7918ZM72.5438 66.78H74.6351V67.872H74.663C74.886 67.452 75.1509 67.1393 75.4576 66.934C75.7644 66.7193 76.1501 66.612 76.6148 66.612C76.7356 66.612 76.8564 66.6167 76.9773 66.626C77.0981 66.6353 77.2096 66.654 77.3119 66.682V68.6C77.1631 68.5533 77.0145 68.5207 76.8658 68.502C76.7264 68.474 76.5776 68.46 76.4196 68.46C76.0199 68.46 75.7039 68.516 75.4716 68.628C75.2392 68.74 75.0579 68.8987 74.9278 69.104C74.807 69.3 74.728 69.538 74.6908 69.818C74.6536 70.098 74.6351 70.406 74.6351 70.742V73.584H72.5438V66.78ZM84.3895 72.408C84.0549 72.8373 83.632 73.1687 83.1208 73.402C82.6096 73.6353 82.0798 73.752 81.5314 73.752C81.0109 73.752 80.5183 73.668 80.0536 73.5C79.5981 73.332 79.1985 73.094 78.8546 72.786C78.52 72.4687 78.2551 72.0907 78.0599 71.652C77.8647 71.2133 77.7671 70.7233 77.7671 70.182C77.7671 69.6407 77.8647 69.1507 78.0599 68.712C78.2551 68.2733 78.52 67.9 78.8546 67.592C79.1985 67.2747 79.5981 67.032 80.0536 66.864C80.5183 66.696 81.0109 66.612 81.5314 66.612C82.0147 66.612 82.4516 66.696 82.842 66.864C83.2416 67.032 83.5762 67.2747 83.8458 67.592C84.1246 67.9 84.3384 68.2733 84.4871 68.712C84.6358 69.1507 84.7102 69.6407 84.7102 70.182V70.84H79.8584C79.9421 71.2413 80.1233 71.5633 80.4022 71.806C80.681 72.0393 81.0249 72.156 81.4339 72.156C81.7777 72.156 82.0658 72.0813 82.2983 71.932C82.5398 71.7733 82.749 71.5727 82.9256 71.33L84.3895 72.408ZM82.6189 69.412C82.6282 69.0573 82.512 68.754 82.2704 68.502C82.0287 68.25 81.7173 68.124 81.3363 68.124C81.1038 68.124 80.8994 68.1613 80.7228 68.236C80.5462 68.3107 80.3928 68.4087 80.2627 68.53C80.1418 68.642 80.0442 68.7773 79.9699 68.936C79.9048 69.0853 79.8677 69.244 79.8584 69.412H82.6189Z" fill="black"/>
<rect x="31.9337" y="42" width="3.98341" height="8" rx="1" fill="black"/>
<rect x="39.9005" y="38" width="3.98341" height="16" rx="1" fill="black"/>
<rect x="47.8672" y="27" width="3.98341" height="36" rx="1" fill="black"/>
<rect x="55.834" y="38" width="3.98341" height="16" rx="1" fill="black"/>
<rect x="63.8009" y="42" width="3.98341" height="8" rx="1" fill="black"/>
<rect x="71.7677" y="38" width="3.98341" height="16" rx="1" fill="black"/>
<rect x="79.7345" y="30" width="3.98341" height="30" rx="1" fill="black"/>
<rect x="16" y="30" width="3.98341" height="30" rx="1" fill="black"/>
<rect x="23.9668" y="38" width="3.98341" height="16" rx="1" fill="black"/>
</svg>
