<svg width="70" height="47" viewBox="0 0 70 47" fill="none" xmlns="http://www.w3.org/2000/svg">
<path d="M0.89209 39.78H2.89973V40.704H2.92761C2.99267 40.5733 3.08562 40.4427 3.20645 40.312C3.32727 40.1813 3.47134 40.0647 3.63865 39.962C3.80595 39.8593 3.99649 39.7753 4.21027 39.71C4.42405 39.6447 4.65641 39.612 4.90736 39.612C5.38139 39.612 5.79965 39.71 6.16214 39.906C6.53392 40.102 6.81276 40.41 6.99865 40.83C7.24031 40.3913 7.5331 40.0787 7.87699 39.892C8.22089 39.7053 8.6438 39.612 9.14571 39.612C9.60114 39.612 9.98222 39.6913 10.2889 39.85C10.605 39.9993 10.8512 40.2093 11.0279 40.48C11.2137 40.7413 11.3439 41.054 11.4183 41.418C11.5019 41.7727 11.5437 42.1553 11.5437 42.566V46.584H9.45243V42.622C9.45243 42.3047 9.38272 42.034 9.2433 41.81C9.11317 41.5767 8.87616 41.46 8.53226 41.46C8.29061 41.46 8.08612 41.502 7.91882 41.586C7.76081 41.6607 7.63069 41.768 7.52844 41.908C7.4355 42.048 7.36579 42.2113 7.31932 42.398C7.28214 42.5847 7.26355 42.7807 7.26355 42.986V46.584H5.17226V42.986C5.17226 42.8647 5.16761 42.7153 5.15832 42.538C5.14903 42.3607 5.11649 42.1927 5.06072 42.034C5.00496 41.8753 4.91201 41.74 4.78189 41.628C4.66106 41.516 4.47981 41.46 4.23815 41.46C3.9686 41.46 3.75018 41.5113 3.58288 41.614C3.41558 41.7073 3.28545 41.838 3.19251 42.006C3.10885 42.1647 3.05309 42.3467 3.0252 42.552C2.99732 42.7573 2.98338 42.972 2.98338 43.196V46.584H0.89209V39.78ZM19.548 46.584H17.5404V45.66H17.5125C17.4382 45.7907 17.3406 45.9213 17.2197 46.052C17.1082 46.1827 16.9687 46.2993 16.8014 46.402C16.6341 46.5047 16.4436 46.5887 16.2298 46.654C16.0161 46.7193 15.7837 46.752 15.5327 46.752C15.0029 46.752 14.5707 46.6727 14.2361 46.514C13.9109 46.346 13.6552 46.1173 13.4693 45.828C13.2928 45.5387 13.172 45.198 13.1068 44.806C13.0511 44.414 13.0232 43.9893 13.0232 43.532V39.78H15.1145V43.112C15.1145 43.308 15.1191 43.5133 15.1284 43.728C15.147 43.9333 15.1889 44.1247 15.2539 44.302C15.3283 44.4793 15.4351 44.624 15.5745 44.736C15.7233 44.848 15.9325 44.904 16.2019 44.904C16.4715 44.904 16.6899 44.8573 16.8572 44.764C17.0245 44.6613 17.15 44.5307 17.2336 44.372C17.3266 44.204 17.387 44.0173 17.4149 43.812C17.4428 43.6067 17.4567 43.392 17.4567 43.168V39.78H19.548V46.584ZM24.863 41.782C24.5562 41.3993 24.1519 41.208 23.65 41.208C23.4734 41.208 23.3015 41.25 23.1342 41.334C22.9669 41.418 22.8832 41.5627 22.8832 41.768C22.8832 41.936 22.9669 42.062 23.1342 42.146C23.3107 42.2207 23.5292 42.2907 23.7894 42.356C24.059 42.412 24.3424 42.4773 24.6399 42.552C24.9466 42.6173 25.2301 42.7247 25.4903 42.874C25.7599 43.0233 25.9783 43.2287 26.1456 43.49C26.3222 43.742 26.4105 44.0827 26.4105 44.512C26.4105 44.9507 26.3129 45.3147 26.1177 45.604C25.9318 45.884 25.6902 46.1127 25.3927 46.29C25.0953 46.458 24.7607 46.5747 24.3889 46.64C24.0172 46.7147 23.65 46.752 23.2875 46.752C22.8135 46.752 22.3348 46.6867 21.8515 46.556C21.3682 46.416 20.9592 46.1733 20.6246 45.828L21.8933 44.414C22.0885 44.6567 22.3023 44.8433 22.5347 44.974C22.7763 45.0953 23.0552 45.156 23.3712 45.156C23.6129 45.156 23.8313 45.1233 24.0264 45.058C24.2216 44.9833 24.3192 44.8527 24.3192 44.666C24.3192 44.4887 24.2309 44.358 24.0543 44.274C23.887 44.1807 23.6686 44.106 23.3991 44.05C23.1388 43.9847 22.8553 43.9193 22.5486 43.854C22.2511 43.7793 21.9677 43.672 21.6981 43.532C21.4379 43.392 21.2194 43.196 21.0429 42.944C20.8756 42.6827 20.7919 42.3373 20.7919 41.908C20.7919 41.5067 20.8709 41.1613 21.0289 40.872C21.1962 40.5827 21.41 40.3447 21.6703 40.158C21.9398 39.9713 22.2466 39.836 22.5904 39.752C22.9343 39.6587 23.2828 39.612 23.6361 39.612C24.0822 39.612 24.533 39.6773 24.9884 39.808C25.4438 39.9387 25.8296 40.172 26.1456 40.508L24.863 41.782ZM33.8958 45.408C33.5612 45.8373 33.1383 46.1687 32.6271 46.402C32.1158 46.6353 31.586 46.752 31.0377 46.752C30.5172 46.752 30.0246 46.668 29.5599 46.5C29.1044 46.332 28.7048 46.094 28.3609 45.786C28.0263 45.4687 27.7614 45.0907 27.5662 44.652C27.371 44.2133 27.2734 43.7233 27.2734 43.182C27.2734 42.6407 27.371 42.1507 27.5662 41.712C27.7614 41.2733 28.0263 40.9 28.3609 40.592C28.7048 40.2747 29.1044 40.032 29.5599 39.864C30.0246 39.696 30.5172 39.612 31.0377 39.612C31.521 39.612 31.9579 39.696 32.3483 39.864C32.7479 40.032 33.0825 40.2747 33.3521 40.592C33.6309 40.9 33.8446 41.2733 33.9934 41.712C34.1421 42.1507 34.2165 42.6407 34.2165 43.182V43.84H29.3647C29.4484 44.2413 29.6296 44.5633 29.9084 44.806C30.1873 45.0393 30.5311 45.156 30.9401 45.156C31.284 45.156 31.5721 45.0813 31.8045 44.932C32.0461 44.7733 32.2553 44.5727 32.4319 44.33L33.8958 45.408ZM32.1252 42.412C32.1345 42.0573 32.0182 41.754 31.7767 41.502C31.535 41.25 31.2236 41.124 30.8425 41.124C30.6101 41.124 30.4057 41.1613 30.2291 41.236C30.0524 41.3107 29.8991 41.4087 29.769 41.53C29.6481 41.642 29.5505 41.7773 29.4762 41.936C29.4111 42.0853 29.374 42.244 29.3647 42.412H32.1252ZM39.3222 41.782C39.0155 41.3993 38.6112 41.208 38.1093 41.208C37.9327 41.208 37.7607 41.25 37.5934 41.334C37.4261 41.418 37.3425 41.5627 37.3425 41.768C37.3425 41.936 37.4261 42.062 37.5934 42.146C37.77 42.2207 37.9885 42.2907 38.2487 42.356C38.5183 42.412 38.8017 42.4773 39.0992 42.552C39.4059 42.6173 39.6894 42.7247 39.9496 42.874C40.2192 43.0233 40.4376 43.2287 40.6049 43.49C40.7814 43.742 40.8698 44.0827 40.8698 44.512C40.8698 44.9507 40.7722 45.3147 40.577 45.604C40.3911 45.884 40.1495 46.1127 39.852 46.29C39.5546 46.458 39.22 46.5747 38.8482 46.64C38.4764 46.7147 38.1093 46.752 37.7468 46.752C37.2728 46.752 36.7941 46.6867 36.3108 46.556C35.8275 46.416 35.4185 46.1733 35.0839 45.828L36.3526 44.414C36.5478 44.6567 36.7616 44.8433 36.9939 44.974C37.2356 45.0953 37.5145 45.156 37.8304 45.156C38.0721 45.156 38.2905 45.1233 38.4857 45.058C38.6809 44.9833 38.7785 44.8527 38.7785 44.666C38.7785 44.4887 38.6902 44.358 38.5136 44.274C38.3463 44.1807 38.1279 44.106 37.8583 44.05C37.5981 43.9847 37.3146 43.9193 37.0079 43.854C36.7104 43.7793 36.427 43.672 36.1574 43.532C35.8972 43.392 35.6787 43.196 35.5021 42.944C35.3348 42.6827 35.2512 42.3373 35.2512 41.908C35.2512 41.5067 35.3302 41.1613 35.4882 40.872C35.6555 40.5827 35.8693 40.3447 36.1295 40.158C36.3991 39.9713 36.7058 39.836 37.0497 39.752C37.3936 39.6587 37.7421 39.612 38.0953 39.612C38.5415 39.612 38.9923 39.6773 39.4477 39.808C39.9031 39.9387 40.2889 40.172 40.6049 40.508L39.3222 41.782ZM44.0331 36V40.704H44.061C44.1075 40.5733 44.1865 40.4427 44.298 40.312C44.4095 40.1813 44.5443 40.0647 44.7023 39.962C44.8604 39.8593 45.0462 39.7753 45.26 39.71C45.4738 39.6447 45.7061 39.612 45.9571 39.612C46.4869 39.612 46.9144 39.696 47.2397 39.864C47.5651 40.0227 47.816 40.2467 47.9926 40.536C48.1785 40.8253 48.304 41.166 48.369 41.558C48.4341 41.95 48.4666 42.3747 48.4666 42.832V46.584H46.3753V43.252C46.3753 43.056 46.3661 42.8553 46.3475 42.65C46.3382 42.4353 46.2964 42.2393 46.222 42.062C46.157 41.8847 46.05 41.74 45.9013 41.628C45.7619 41.516 45.5575 41.46 45.2879 41.46C45.0183 41.46 44.7999 41.5113 44.6326 41.614C44.4653 41.7073 44.3351 41.838 44.2422 42.006C44.1586 42.1647 44.1028 42.3467 44.0749 42.552C44.047 42.7573 44.0331 42.972 44.0331 43.196V46.584H41.9418V36H44.0331ZM54.1997 45.73H54.1719C53.9395 46.094 53.6281 46.3553 53.2378 46.514C52.8567 46.6727 52.4524 46.752 52.0248 46.752C51.7088 46.752 51.4021 46.7053 51.1046 46.612C50.8165 46.528 50.5609 46.3973 50.3378 46.22C50.1148 46.0427 49.9382 45.8233 49.808 45.562C49.678 45.3007 49.6129 44.9973 49.6129 44.652C49.6129 44.26 49.6826 43.9287 49.822 43.658C49.9708 43.3873 50.166 43.1633 50.4075 42.986C50.6585 42.8087 50.942 42.6733 51.258 42.58C51.5741 42.4773 51.8993 42.4027 52.2339 42.356C52.5779 42.3093 52.9171 42.2813 53.2517 42.272C53.5957 42.2627 53.9116 42.258 54.1997 42.258C54.1997 41.8847 54.065 41.5907 53.7954 41.376C53.5352 41.152 53.2238 41.04 52.8613 41.04C52.5175 41.04 52.2015 41.1147 51.9133 41.264C51.6344 41.404 51.3835 41.6 51.1604 41.852L50.0451 40.704C50.4354 40.34 50.8909 40.0693 51.4114 39.892C51.9319 39.7053 52.471 39.612 53.0286 39.612C53.6421 39.612 54.144 39.6913 54.5344 39.85C54.9341 39.9993 55.2501 40.2233 55.4824 40.522C55.7241 40.8207 55.8914 41.1893 55.9843 41.628C56.0773 42.0573 56.1237 42.5567 56.1237 43.126V46.584H54.1997V45.73ZM53.6839 43.602C53.526 43.602 53.3261 43.6113 53.0844 43.63C52.8521 43.6393 52.6243 43.6767 52.4012 43.742C52.1875 43.8073 52.0016 43.9053 51.8436 44.036C51.6949 44.1667 51.6205 44.3487 51.6205 44.582C51.6205 44.834 51.7274 45.0207 51.9412 45.142C52.155 45.2633 52.378 45.324 52.6104 45.324C52.8149 45.324 53.0101 45.296 53.1959 45.24C53.3911 45.184 53.5631 45.1047 53.7118 45.002C53.8606 44.8993 53.9767 44.7687 54.0603 44.61C54.1533 44.4513 54.1997 44.2647 54.1997 44.05V43.602H53.6839ZM57.4359 39.78H59.5272V40.872H59.555C59.7781 40.452 60.043 40.1393 60.3497 39.934C60.6565 39.7193 61.0421 39.612 61.5069 39.612C61.6277 39.612 61.7485 39.6167 61.8694 39.626C61.9902 39.6353 62.1017 39.654 62.204 39.682V41.6C62.0552 41.5533 61.9065 41.5207 61.7579 41.502C61.6184 41.474 61.4697 41.46 61.3117 41.46C60.912 41.46 60.596 41.516 60.3637 41.628C60.1312 41.74 59.95 41.8987 59.8199 42.104C59.699 42.3 59.6201 42.538 59.5829 42.818C59.5457 43.098 59.5272 43.406 59.5272 43.742V46.584H57.4359V39.78ZM69.2816 45.408C68.947 45.8373 68.5241 46.1687 68.0129 46.402C67.5016 46.6353 66.9718 46.752 66.4235 46.752C65.903 46.752 65.4104 46.668 64.9457 46.5C64.4902 46.332 64.0905 46.094 63.7467 45.786C63.4121 45.4687 63.1472 45.0907 62.952 44.652C62.7568 44.2133 62.6592 43.7233 62.6592 43.182C62.6592 42.6407 62.7568 42.1507 62.952 41.712C63.1472 41.2733 63.4121 40.9 63.7467 40.592C64.0905 40.2747 64.4902 40.032 64.9457 39.864C65.4104 39.696 65.903 39.612 66.4235 39.612C66.9068 39.612 67.3437 39.696 67.7341 39.864C68.1337 40.032 68.4683 40.2747 68.7379 40.592C69.0167 40.9 69.2304 41.2733 69.3792 41.712C69.5279 42.1507 69.6023 42.6407 69.6023 43.182V43.84H64.7505C64.8342 44.2413 65.0154 44.5633 65.2942 44.806C65.5731 45.0393 65.9169 45.156 66.3259 45.156C66.6698 45.156 66.9579 45.0813 67.1903 44.932C67.4319 44.7733 67.6411 44.5727 67.8177 44.33L69.2816 45.408ZM67.511 42.412C67.5203 42.0573 67.4041 41.754 67.1625 41.502C66.9208 41.25 66.6094 41.124 66.2283 41.124C65.9959 41.124 65.7915 41.1613 65.6149 41.236C65.4382 41.3107 65.2849 41.4087 65.1548 41.53C65.0339 41.642 64.9363 41.7773 64.862 41.936C64.7969 42.0853 64.7598 42.244 64.7505 42.412H67.511Z" fill="black"/>
<rect x="16.8257" y="15" width="3.98341" height="8" rx="1" fill="black"/>
<rect x="24.7925" y="11" width="3.98341" height="16" rx="1" fill="black"/>
<rect x="32.7593" width="3.98341" height="36" rx="1" fill="black"/>
<rect x="40.7261" y="11" width="3.98341" height="16" rx="1" fill="black"/>
<rect x="48.693" y="15" width="3.98341" height="8" rx="1" fill="black"/>
<rect x="56.6598" y="11" width="3.98341" height="16" rx="1" fill="black"/>
<rect x="64.6266" y="3" width="3.98341" height="30" rx="1" fill="black"/>
<rect x="0.89209" y="3" width="3.98341" height="30" rx="1" fill="black"/>
<rect x="8.85889" y="11" width="3.98341" height="16" rx="1" fill="black"/>
</svg>
