<svg width="26" height="26" viewBox="0 0 26 26" fill="none" xmlns="http://www.w3.org/2000/svg">
<path d="M21 8C21 12.4183 17.4183 16 13 16C8.58175 16 5.00003 12.4183 5.00003 8C5.00003 3.58172 8.58175 0 13 0C17.4183 0 21 3.58172 21 8Z" fill="black"/>
<path d="M1.58558 20.4506C1.8309 19.592 2.61567 19 3.50863 19H22.4914C23.3844 19 24.1692 19.592 24.4145 20.4506L25.2716 23.4506C25.6367 24.7282 24.6773 26 23.3486 26H2.65149C1.32273 26 0.3634 24.7282 0.728438 23.4506L1.58558 20.4506Z" fill="black"/>
</svg>
