<svg width="26" height="26" viewBox="0 0 26 26" fill="none" xmlns="http://www.w3.org/2000/svg">
<path d="M10.4906 0.790471C10.5894 0.3294 10.9969 0 11.4684 0H14.5316C15.0031 0 15.4106 0.3294 15.5094 0.790471L15.8608 2.43047C15.9942 3.05298 15.5197 3.64 14.883 3.64H11.117C10.4803 3.64 10.0058 3.05298 10.1392 2.43047L10.4906 0.790471Z" fill="black"/>
<path d="M19.8591 2.59215C20.2549 2.33599 20.776 2.39119 21.1094 2.72461L23.2754 4.8906C23.6088 5.22403 23.664 5.74507 23.4079 6.14096L22.7871 7.10034C22.3642 7.7539 21.3896 7.69496 21.0486 6.9952L20.5732 6.01979C20.4784 5.8252 20.3229 5.66664 20.1303 5.56792L18.9528 4.96457C18.2679 4.61366 18.2194 3.65308 18.8655 3.23503L19.8591 2.59215Z" fill="black"/>
<path d="M25.2095 10.4906C25.6706 10.5894 26 10.9969 26 11.4684V14.5316C26 15.0031 25.6706 15.4106 25.2095 15.5094L23.5695 15.8608C22.947 15.9942 22.36 15.5197 22.36 14.883V11.117C22.36 10.4803 22.947 10.0058 23.5695 10.1392L25.2095 10.4906Z" fill="black"/>
<path d="M25.2095 10.4906C25.6706 10.5894 26 10.9969 26 11.4684V14.5316C26 15.0031 25.6706 15.4106 25.2095 15.5094L23.5695 15.8608C22.947 15.9942 22.36 15.5197 22.36 14.883V11.117C22.36 10.4803 22.947 10.0058 23.5695 10.1392L25.2095 10.4906Z" fill="black"/>
<path d="M23.4078 19.859C23.664 20.2549 23.6088 20.776 23.2754 21.1094L21.1094 23.2754C20.776 23.6088 20.2549 23.664 19.859 23.4078L18.4509 22.4967C17.9164 22.1508 17.8368 21.4002 18.287 20.95L20.95 18.287C21.4002 17.8369 22.1508 17.9164 22.4967 18.4509L23.4078 19.859Z" fill="black"/>
<path d="M15.5094 25.2095C15.4106 25.6706 15.0031 26 14.5316 26H11.4684C10.9969 26 10.5894 25.6706 10.4906 25.2095L10.1392 23.5695C10.0058 22.947 10.4803 22.36 11.117 22.36H14.883C15.5197 22.36 15.9942 22.947 15.8608 23.5695L15.5094 25.2095Z" fill="black"/>
<path d="M6.14095 23.4078C5.74506 23.664 5.22402 23.6088 4.89059 23.2754L2.7246 21.1094C2.39118 20.776 2.33598 20.2549 2.59214 19.859L3.5033 18.4509C3.84915 17.9164 4.5998 17.8369 5.04997 18.287L7.71296 20.95C8.16313 21.4002 8.08361 22.1508 7.5491 22.4967L6.14095 23.4078Z" fill="black"/>
<path d="M0.790471 15.5094C0.3294 15.4106 0 15.0031 0 14.5316V11.4684C0 10.9969 0.3294 10.5894 0.790471 10.4906L2.43047 10.1392C3.05298 10.0058 3.64 10.4803 3.64 11.117V14.883C3.64 15.5197 3.05298 15.9942 2.43047 15.8608L0.790471 15.5094Z" fill="black"/>
<path d="M2.59217 6.14096C2.336 5.74507 2.3912 5.22403 2.72463 4.89061L4.89062 2.72462C5.22404 2.39119 5.74509 2.33599 6.14097 2.59216L7.54913 3.50331C8.08364 3.84917 8.16316 4.59981 7.71298 5.04999L5.05 7.71297C4.59982 8.16315 3.84918 8.08362 3.50332 7.54912L2.59217 6.14096Z" fill="black"/>
<path fill-rule="evenodd" clip-rule="evenodd" d="M13 23.4C18.7438 23.4 23.4 18.7438 23.4 13C23.4 7.25624 18.7438 2.6 13 2.6C7.25624 2.6 2.6 7.25624 2.6 13C2.6 18.7438 7.25624 23.4 13 23.4ZM12.74 19.24C16.0427 19.24 18.72 16.5627 18.72 13.26C18.72 9.95734 16.0427 7.28 12.74 7.28C9.43734 7.28 6.76 9.95734 6.76 13.26C6.76 16.5627 9.43734 19.24 12.74 19.24Z" fill="black"/>
</svg>
